<?xml version="1.0" encoding="utf-8"?>
<!-- Generated by IcoMoon.io -->
<!DOCTYPE svg PUBLIC "-//W3C//DTD SVG 1.1//EN" "http://www.w3.org/Graphics/SVG/1.1/DTD/svg11.dtd">
<svg version="1.1" xmlns="http://www.w3.org/2000/svg" xmlns:xlink="http://www.w3.org/1999/xlink" width="86" height="100" viewBox="0 0 86 100">
<g id="icomoon-ignore">
	<line stroke-width="1" x1="" y1="" x2="" y2="" stroke="#449FDB" opacity=""></line>
</g>
	<path d="M0 94.643v-89.286q0-2.232 1.563-3.795t3.795-1.563h50q2.232 0 4.911 1.116t4.241 2.679l17.411 17.411q1.563 1.563 2.679 4.241t1.116 4.911v64.286q0 2.232-1.563 3.795t-3.795 1.563h-75q-2.232 0-3.795-1.563t-1.563-3.795zM7.143 92.857h71.429v-57.143h-23.214q-2.232 0-3.795-1.563t-1.563-3.795v-23.214h-42.857v85.714zM14.174 61.775q-0.781-1.060 0-2.121l12.612-16.797q0.446-0.614 1.172-0.698t1.339 0.363l2.846 2.121q0.614 0.446 0.698 1.172t-0.363 1.339l-10.156 13.56 10.156 13.56q0.446 0.614 0.363 1.339t-0.698 1.172l-2.846 2.121q-0.614 0.446-1.339 0.363t-1.172-0.698zM35.491 83.315l7.701-46.373q0.112-0.725 0.725-1.144t1.339-0.307l3.516 0.558q0.725 0.112 1.144 0.725t0.307 1.339l-7.701 46.373q-0.112 0.725-0.725 1.144t-1.339 0.307l-3.516-0.558q-0.725-0.112-1.144-0.725t-0.307-1.339zM52.874 75.614q-0.084-0.725 0.363-1.339l10.156-13.56-10.156-13.56q-0.446-0.614-0.363-1.339t0.698-1.172l2.846-2.121q0.614-0.446 1.339-0.363t1.172 0.698l12.612 16.797q0.781 1.060 0 2.121l-12.612 16.797q-0.446 0.614-1.172 0.698t-1.339-0.363l-2.846-2.121q-0.614-0.446-0.698-1.172zM57.143 28.571h20.982q-0.558-1.618-1.228-2.288l-17.467-17.467q-0.67-0.67-2.288-1.228v20.982z" fill="#1c9bb1"></path>
</svg>
