<?xml version="1.0" encoding="utf-8"?>
<!-- Generated by IcoMoon.io -->
<!DOCTYPE svg PUBLIC "-//W3C//DTD SVG 1.1//EN" "http://www.w3.org/Graphics/SVG/1.1/DTD/svg11.dtd">
<svg version="1.1" xmlns="http://www.w3.org/2000/svg" xmlns:xlink="http://www.w3.org/1999/xlink" width="100" height="100" viewBox="0 0 100 100">
<g id="icomoon-ignore">
	<line stroke-width="1" x1="" y1="" x2="" y2="" stroke="#449FDB" opacity=""></line>
</g>
	<path d="M0 94.643v-89.286q0-2.232 1.563-3.795t3.795-1.563h50q2.232 0 4.911 1.116t4.241 2.679l17.411 17.411q1.563 1.563 2.679 4.241t1.116 4.911v64.286q0 2.232-1.563 3.795t-3.795 1.563h-75q-2.232 0-3.795-1.563t-1.563-3.795zM7.143 92.857h71.429v-57.143h-23.214q-2.232 0-3.795-1.563t-1.563-3.795v-23.214h-42.857v85.714zM23.94 85.714h15.681v-5.915h-4.185l5.748-8.984q0.279-0.391 0.558-0.921t0.419-0.753 0.195-0.223h0.112q0.056 0.223 0.279 0.558 0.112 0.223 0.251 0.419t0.335 0.446 0.363 0.474l5.971 8.984h-4.241v5.915h16.239v-5.915h-3.795l-10.714-15.234 10.882-15.737h3.739v-5.971h-15.569v5.971h4.129l-5.748 8.873q-0.223 0.391-0.558 0.921t-0.502 0.753l-0.112 0.167h-0.112q-0.056-0.223-0.279-0.558-0.335-0.614-0.949-1.283l-5.915-8.873h4.241v-5.971h-16.183v5.971h3.795l10.547 15.179-10.826 15.792h-3.795v5.915zM57.143 28.571h20.982q-0.558-1.618-1.228-2.288l-17.467-17.467q-0.67-0.67-2.288-1.228v20.982z" fill="#1c9bb1"></path>
</svg>
