<?xml version="1.0" encoding="utf-8"?>
<!-- Generated by IcoMoon.io -->
<!DOCTYPE svg PUBLIC "-//W3C//DTD SVG 1.1//EN" "http://www.w3.org/Graphics/SVG/1.1/DTD/svg11.dtd">
<svg version="1.1" xmlns="http://www.w3.org/2000/svg" xmlns:xlink="http://www.w3.org/1999/xlink" width="86" height="100" viewBox="0 0 86 100">
<g id="icomoon-ignore">
	<line stroke-width="1" x1="" y1="" x2="" y2="" stroke="#449FDB" opacity=""></line>
</g>
	<path d="M0 94.643v-89.286q0-2.232 1.563-3.795t3.795-1.563h50q2.232 0 4.911 1.116t4.241 2.679l17.411 17.411q1.563 1.563 2.679 4.241t1.116 4.911v64.286q0 2.232-1.563 3.795t-3.795 1.563h-75q-2.232 0-3.795-1.563t-1.563-3.795zM7.143 92.857h71.429v-57.143h-23.214q-2.232 0-3.795-1.563t-1.563-3.795v-23.214h-42.857v85.714zM14.286 71.429v-21.429q0-2.902 2.121-5.022t5.022-2.121h21.429q2.902 0 5.022 2.121t2.121 5.022v21.429q0 2.902-2.121 5.022t-5.022 2.121h-21.429q-2.902 0-5.022-2.121t-2.121-5.022zM53.571 63.225v-5.022l14.788-14.844q0.502-0.502 1.283-0.502 0.223 0 0.67 0.112 1.116 0.446 1.116 1.674v32.143q0 1.228-1.116 1.674-0.446 0.112-0.67 0.112-0.781 0-1.283-0.502zM57.143 28.571h20.982q-0.558-1.618-1.228-2.288l-17.467-17.467q-0.67-0.67-2.288-1.228v20.982z" fill="#1c9bb1"></path>
</svg>
