<?xml version="1.0" encoding="utf-8"?>
<!-- Generated by IcoMoon.io -->
<!DOCTYPE svg PUBLIC "-//W3C//DTD SVG 1.1//EN" "http://www.w3.org/Graphics/SVG/1.1/DTD/svg11.dtd">
<svg version="1.1" xmlns="http://www.w3.org/2000/svg" xmlns:xlink="http://www.w3.org/1999/xlink" width="100" height="100" viewBox="0 0 100 100">
<g id="icomoon-ignore">
	<line stroke-width="1" x1="" y1="" x2="" y2="" stroke="#449FDB" opacity=""></line>
</g>
	<path d="M0 94.643v-89.286q0-2.232 1.563-3.795t3.795-1.563h50q2.232 0 4.911 1.116t4.241 2.679l17.411 17.411q1.563 1.563 2.679 4.241t1.116 4.911v64.286q0 2.232-1.563 3.795t-3.795 1.563h-75q-2.232 0-3.795-1.563t-1.563-3.795zM7.143 92.857h71.429v-57.143h-23.214q-2.232 0-3.795-1.563t-1.563-3.795v-23.214h-42.857v85.714zM14.342 82.366q0.502-2.232 3.125-5.106t7.366-5.385q0.781-0.502 1.283 0.335 0.112 0.112 0.112 0.223 2.902-4.743 5.971-10.993 3.795-7.589 5.804-14.621-1.339-4.576-1.702-8.901t0.363-7.115q0.614-2.232 2.344-2.232h1.228q1.283 0 1.953 0.837 1.004 1.172 0.502 3.795-0.112 0.335-0.223 0.446 0.056 0.167 0.056 0.446v1.674q-0.112 6.864-0.781 10.714 3.069 9.152 8.147 13.281 1.842 1.451 4.688 3.125 3.292-0.391 6.529-0.391 8.203 0 9.877 2.734 0.893 1.228 0.112 2.902 0 0.056-0.056 0.112l-0.112 0.112v0.056q-0.335 2.121-3.962 2.121-2.679 0-6.417-1.116t-7.254-2.958q-12.333 1.339-21.875 4.632-8.538 14.621-13.504 14.621-0.837 0-1.563-0.391l-1.339-0.67q-0.056-0.056-0.335-0.279-0.558-0.558-0.335-2.009zM17.746 82.701q2.902-1.339 7.645-8.817-2.846 2.232-4.883 4.688t-2.762 4.129zM33.036 68.248q7.533-3.013 15.848-4.52-0.112-0.056-0.725-0.53t-0.893-0.753q-4.241-3.739-7.087-9.821-1.507 4.799-4.632 10.993-1.674 3.125-2.511 4.632zM39.844 38.728q0.056-0.391 0.391-2.455 0-0.167 0.391-2.4 0.056-0.223 0.223-0.446-0.056-0.056-0.056-0.112t-0.028-0.084-0.028-0.084q-0.056-1.228-0.725-2.009 0 0.056-0.056 0.112v0.112q-0.837 2.344-0.112 7.366zM57.143 28.571h20.982q-0.558-1.618-1.228-2.288l-17.467-17.467q-0.67-0.67-2.288-1.228v20.982zM61.272 66.016q4.241 1.563 6.92 1.563 0.781 0 1.004-0.056 0-0.056-0.112-0.167-1.339-1.339-7.812-1.339z" fill="#1c9bb1"></path>
</svg>
