<?xml version="1.0" encoding="utf-8"?>
<!-- Generated by IcoMoon.io -->
<!DOCTYPE svg PUBLIC "-//W3C//DTD SVG 1.1//EN" "http://www.w3.org/Graphics/SVG/1.1/DTD/svg11.dtd">
<svg version="1.1" xmlns="http://www.w3.org/2000/svg" xmlns:xlink="http://www.w3.org/1999/xlink" width="100" height="100" viewBox="0 0 100 100">
<g id="icomoon-ignore">
	<line stroke-width="1" x1="" y1="" x2="" y2="" stroke="#449FDB" opacity=""></line>
</g>
	<path d="M0 94.643v-89.286q0-2.232 1.563-3.795t3.795-1.563h50q2.232 0 4.911 1.116t4.241 2.679l17.411 17.411q1.563 1.563 2.679 4.241t1.116 4.911v64.286q0 2.232-1.563 3.795t-3.795 1.563h-75q-2.232 0-3.795-1.563t-1.563-3.795zM7.143 92.857h71.429v-57.143h-23.214q-2.232 0-3.795-1.563t-1.563-3.795v-23.214h-42.857v85.714zM14.286 69.643v-10.714q0-0.781 0.502-1.283t1.283-0.502h7.31l9.263-9.319q0.893-0.837 1.953-0.391 1.116 0.446 1.116 1.674v30.357q0 1.228-1.116 1.674-0.446 0.112-0.67 0.112-0.67 0-1.283-0.502l-9.263-9.319h-7.31q-0.781 0-1.283-0.502t-0.502-1.283zM42.522 74.191q0.056 1.479 1.116 2.483 1.116 0.949 2.455 0.949 1.507 0 2.623-1.116 4.855-5.19 4.855-12.221t-4.855-12.221q-1.004-1.060-2.511-1.116t-2.567 0.949-1.116 2.483 1.004 2.595q2.902 3.181 2.902 7.31t-2.902 7.31q-1.060 1.116-1.004 2.595zM54.325 82.673q0.14 1.479 1.311 2.372 1.004 0.837 2.232 0.837 1.73 0 2.79-1.339 7.199-8.873 7.199-20.257t-7.199-20.257q-0.893-1.172-2.4-1.339t-2.623 0.781q-1.172 0.949-1.311 2.427t0.809 2.651q5.58 6.864 5.58 15.737t-5.58 15.737q-0.949 1.172-0.809 2.651zM57.143 28.571h20.982q-0.558-1.618-1.228-2.288l-17.467-17.467q-0.67-0.67-2.288-1.228v20.982z" fill="#1c9bb1"></path>
</svg>
