<?xml version="1.0" encoding="utf-8"?>
<!-- Generated by IcoMoon.io -->
<!DOCTYPE svg PUBLIC "-//W3C//DTD SVG 1.1//EN" "http://www.w3.org/Graphics/SVG/1.1/DTD/svg11.dtd">
<svg version="1.1" xmlns="http://www.w3.org/2000/svg" xmlns:xlink="http://www.w3.org/1999/xlink" width="100" height="100" viewBox="0 0 100 100">
<g id="icomoon-ignore">
	<line stroke-width="1" x1="" y1="" x2="" y2="" stroke="#449FDB" opacity=""></line>
</g>
	<path d="M0 94.643v-89.286q0-2.232 1.563-3.795t3.795-1.563h50q2.232 0 4.911 1.116t4.241 2.679l17.411 17.411q1.563 1.563 2.679 4.241t1.116 4.911v64.286q0 2.232-1.563 3.795t-3.795 1.563h-75q-2.232 0-3.795-1.563t-1.563-3.795zM7.143 92.857h71.429v-57.143h-23.214q-2.232 0-3.795-1.563t-1.563-3.795v-23.214h-42.857v85.714zM13.002 48.828h3.906l9.152 36.886h8.873l7.143-27.065q0.391-1.116 0.558-2.567 0.112-0.893 0.112-1.339h0.223l0.167 1.339q0.056 0.167 0.195 1.116t0.307 1.451l7.143 27.065h8.873l9.152-36.886h3.906v-5.971h-16.741v5.971h5.022l-5.525 24.442q-0.279 1.116-0.391 2.567l-0.112 1.172h-0.223l-0.167-1.172q-0.056-0.279-0.223-1.172t-0.279-1.395l-8.036-30.413h-6.362l-8.036 30.413q-0.112 0.502-0.251 1.367t-0.195 1.2l-0.223 1.172h-0.223l-0.112-1.172q-0.112-1.451-0.391-2.567l-5.525-24.442h5.022v-5.971h-16.741v5.971zM57.143 28.571h20.982q-0.558-1.618-1.228-2.288l-17.467-17.467q-0.67-0.67-2.288-1.228v20.982z" fill="#1c9bb1"></path>
</svg>
