<?xml version="1.0" encoding="utf-8"?>
<!-- Generated by IcoMoon.io -->
<!DOCTYPE svg PUBLIC "-//W3C//DTD SVG 1.1//EN" "http://www.w3.org/Graphics/SVG/1.1/DTD/svg11.dtd">
<svg version="1.1" xmlns="http://www.w3.org/2000/svg" xmlns:xlink="http://www.w3.org/1999/xlink" width="100" height="100" viewBox="0 0 100 100">
<g id="icomoon-ignore">
	<line stroke-width="1" x1="" y1="" x2="" y2="" stroke="#449FDB" opacity=""></line>
</g>
	<path d="M0 94.643v-89.286q0-2.232 1.563-3.795t3.795-1.563h50q2.232 0 4.911 1.116t4.241 2.679l17.411 17.411q1.563 1.563 2.679 4.241t1.116 4.911v64.286q0 2.232-1.563 3.795t-3.795 1.563h-75q-2.232 0-3.795-1.563t-1.563-3.795zM7.143 92.857h71.429v-57.143h-23.214q-2.232 0-3.795-1.563t-1.563-3.795v-23.214h-7.143v7.143h-7.143v-7.143h-28.571v85.714zM21.429 75q0-1.395 0.446-2.902 1.172-3.516 6.696-22.098v-7.143h7.143v7.143h4.408q1.228 0 2.176 0.725t1.283 1.897l5.971 19.475q0.446 1.507 0.446 2.902 0 4.632-4.046 7.673t-10.24 3.041-10.24-3.041-4.046-7.673zM28.571 75q0 1.451 2.093 2.511t5.050 1.060 5.050-1.060 2.093-2.511-2.093-2.511-5.050-1.060-5.050 1.060-2.093 2.511zM28.571 35.714h7.143v-7.143h-7.143v7.143zM28.571 21.429h7.143v-7.143h-7.143v7.143zM35.714 42.857h7.143v-7.143h-7.143v7.143zM35.714 28.571h7.143v-7.143h-7.143v7.143zM57.143 28.571h20.982q-0.558-1.618-1.228-2.288l-17.467-17.467q-0.67-0.67-2.288-1.228v20.982z" fill="#1c9bb1"></path>
</svg>
