<?xml version="1.0" encoding="UTF-8" standalone="no"?>
<!-- Created with Inkscape (http://www.inkscape.org/) -->

<svg
   xmlns:dc="http://purl.org/dc/elements/1.1/"
   xmlns:cc="http://creativecommons.org/ns#"
   xmlns:rdf="http://www.w3.org/1999/02/22-rdf-syntax-ns#"
   xmlns:svg="http://www.w3.org/2000/svg"
   xmlns="http://www.w3.org/2000/svg"
   version="1.1"
   width="1155"
   height="500.00003"
   id="svg2">
  <defs
     id="defs4" />
  <metadata
     id="metadata7">
    <rdf:RDF>
      <cc:Work
         rdf:about="">
        <dc:format>image/svg+xml</dc:format>
        <dc:type
           rdf:resource="http://purl.org/dc/dcmitype/StillImage" />
        <dc:title></dc:title>
      </cc:Work>
    </rdf:RDF>
  </metadata>
  <g
     transform="translate(0,-552.36218)"
     id="layer1">
    <path
       d="m 250,552.36218 c -137.37558,0 -250,112.62443 -250,250 0,137.37558 112.62442,250.00002 250,250.00002 76.4663,0 145.24612,-34.9305 191.21875,-89.56252 l -0.625,-0.53125 -71.03125,-59.625 C 340.9358,936.74412 298.00733,958.42468 250,958.42468 c -86.18724,0 -156.0625,-69.87526 -156.0625,-156.0625 0,-86.18724 69.87526,-156.0625 156.0625,-156.0625 23.58156,0 45.92732,5.2609 65.96875,14.625 l 39.625,-84.96875 C 323.46521,560.83925 287.65992,552.36218 250,552.36218 z"
       id="path4355"
       style="font-size:medium;font-style:normal;font-variant:normal;font-weight:normal;font-stretch:normal;text-indent:0;text-align:start;text-decoration:none;line-height:normal;letter-spacing:normal;word-spacing:normal;text-transform:none;direction:ltr;block-progression:tb;writing-mode:lr-tb;text-anchor:start;baseline-shift:baseline;color:#000000;fill:#ff3520;fill-opacity:1;stroke:none;stroke-width:153.51960754;marker:none;visibility:visible;display:inline;overflow:visible;enable-background:accumulate;font-family:Sans;-inkscape-font-specification:Sans" />
    <path
       d="m 250,657.69069 c -79.74011,0 -144.67149,64.93139 -144.67149,144.6715 0,79.7401 64.93138,144.67148 144.67149,144.67148 79.74011,0 144.67149,-64.93138 144.67149,-144.67148 0,-79.74011 -64.93138,-144.6715 -144.67149,-144.6715 z m 0,26.76121 c 65.28147,0 117.91028,52.62882 117.91028,117.91029 0,65.28146 -52.62881,117.91027 -117.91028,117.91027 -65.28147,0 -117.91028,-52.62881 -117.91028,-117.91027 0,-65.28147 52.62881,-117.91029 117.91028,-117.91029 z"
       id="path3976"
       style="font-size:medium;font-style:normal;font-variant:normal;font-weight:normal;font-stretch:normal;text-indent:0;text-align:start;text-decoration:none;line-height:normal;letter-spacing:normal;word-spacing:normal;text-transform:none;direction:ltr;block-progression:tb;writing-mode:lr-tb;text-anchor:start;baseline-shift:baseline;color:#000000;fill:#444444;fill-opacity:1;stroke:none;stroke-width:33.24037552;marker:none;visibility:visible;display:inline;overflow:visible;enable-background:accumulate;font-family:Sans;-inkscape-font-specification:Sans" />
    <path
       d="m 249.83109,694.70853 a 11.712447,11.712447 0 0 0 -11.54237,11.88019 l 0,95.77346 a 11.712447,11.712447 0 1 0 23.42256,0 l 0,-95.77346 a 11.712447,11.712447 0 0 0 -11.88019,-11.88019 z"
       id="path4381"
       style="font-size:medium;font-style:normal;font-variant:normal;font-weight:normal;font-stretch:normal;text-indent:0;text-align:start;text-decoration:none;line-height:normal;letter-spacing:normal;word-spacing:normal;text-transform:none;direction:ltr;block-progression:tb;writing-mode:lr-tb;text-anchor:start;baseline-shift:baseline;color:#000000;fill:#ff3520;fill-opacity:1;stroke:none;stroke-width:26;marker:none;visibility:visible;display:inline;overflow:visible;enable-background:accumulate;font-family:Sans;-inkscape-font-specification:Sans" />
    <path
       d="m 249.74663,790.56645 a 11.712447,11.712447 0 0 0 -5.12368,22.21201 l 66.83309,34.54263 a 11.712447,11.712447 0 1 0 10.75411,-20.80441 l -66.8331,-34.57078 a 11.712447,11.712447 0 0 0 -5.63042,-1.37945 z"
       id="path4385"
       style="font-size:medium;font-style:normal;font-variant:normal;font-weight:normal;font-stretch:normal;text-indent:0;text-align:start;text-decoration:none;line-height:normal;letter-spacing:normal;word-spacing:normal;text-transform:none;direction:ltr;block-progression:tb;writing-mode:lr-tb;text-anchor:start;baseline-shift:baseline;color:#000000;fill:#ff3520;fill-opacity:1;stroke:none;stroke-width:26;marker:none;visibility:visible;display:inline;overflow:visible;enable-background:accumulate;font-family:Sans;-inkscape-font-specification:Sans" />
    <g
       id="text2992"
       style="font-size:26.63563919px;font-style:normal;font-variant:normal;font-weight:normal;font-stretch:normal;line-height:125%;letter-spacing:0px;word-spacing:0px;fill:#ff3520;fill-opacity:1;stroke:none;font-family:Aller;-inkscape-font-specification:Aller">
      <path
         d="m 606.86566,856.57358 c -2.75634,4.23275 -5.90627,8.04712 -9.44981,11.44313 -3.54381,3.39603 -7.65349,6.29987 -12.32904,8.71154 -4.67581,2.41166 -9.99132,4.25733 -15.94655,5.53699 -5.95545,1.27966 -12.62444,1.91949 -20.00701,1.91949 -12.99356,0 -24.06754,-1.96871 -33.22197,-5.90613 -9.15454,-3.93741 -16.63563,-9.49901 -22.44329,-16.68481 -5.80772,-7.18576 -10.04044,-15.74964 -12.69817,-25.69166 -2.65778,-9.94193 -3.98666,-20.96669 -3.98664,-33.07431 -2e-5,-12.59966 1.40269,-23.99355 4.20812,-34.18172 2.80538,-10.18795 7.11193,-18.85027 12.91965,-25.98697 5.80766,-7.13642 13.19031,-12.64881 22.14798,-16.53716 8.95757,-3.88804 19.58859,-5.83214 31.8931,-5.8323 13.09181,1.6e-4 24.4611,2.26418 34.10789,6.79205 9.64654,4.52818 17.22607,11.41866 22.73859,20.67145 l -24.80574,16.68481 c -3.44536,-5.31539 -7.67808,-9.37585 -12.69817,-12.18139 -5.02031,-2.80528 -11.3694,-4.20798 -19.04727,-4.20811 -13.28886,1.3e-4 -23.05857,4.40511 -29.30916,13.21496 -6.2507,8.81008 -9.37603,22.66486 -9.37598,41.56438 -5e-5,8.66238 0.689,16.34034 2.06715,23.0339 1.37804,6.69365 3.61745,12.30447 6.71822,16.83246 3.10065,4.52807 7.21033,7.9733 12.32904,10.33573 5.11857,2.36247 11.36922,3.5437 18.75196,3.54367 3.44515,3e-5 6.66891,-0.27067 9.67128,-0.81209 3.00218,-0.54137 5.8322,-1.4519 8.49006,-2.73158 2.65765,-1.27964 5.16775,-2.95304 7.53032,-5.02021 2.36233,-2.06711 4.67556,-4.62643 6.9397,-7.67797 z"
         id="path2999"
         style="font-size:302.39376831px;text-align:start;line-height:125%;writing-mode:lr-tb;text-anchor:start;fill:#ff3520;font-family:Clear Sans Medium;-inkscape-font-specification:'Clear Sans Medium,'" />
      <path
         d="m 793.35166,879.60748 -28.94003,0 -36.32269,-108.5251 -36.618,108.5251 -29.08768,0 -40.16167,-154.88821 32.92666,0 25.10105,108.96807 35.73208,-108.96807 25.10104,0 36.32269,108.67276 24.21513,-108.67276 31.74543,0 z"
         id="path3001"
         style="font-size:302.39376831px;text-align:start;line-height:125%;writing-mode:lr-tb;text-anchor:start;fill:#ff3520;font-family:Clear Sans Medium;-inkscape-font-specification:'Clear Sans Medium,'" />
      <path
         d="m 898.03778,683.96698 c -6e-5,6.49693 -1.55041,11.00035 -4.65107,13.51027 -3.10077,2.51029 -7.8995,3.76534 -14.39619,3.76516 -7.08739,1.8e-4 -11.98455,-1.47635 -14.6915,-4.4296 -2.70699,-2.95288 -4.06048,-7.23481 -4.06046,-12.84583 -2e-5,-6.10279 1.42729,-10.50778 4.28194,-13.21496 2.8546,-2.70676 7.67794,-4.06025 14.47002,-4.06046 6.792,2.1e-4 11.66455,1.32909 14.61767,3.98663 2.953,2.65797 4.42953,7.08756 4.42959,13.28879 z m -34.6985,195.6405 0,-154.88821 31.74544,0 0,154.88821 z"
         id="path3003"
         style="font-size:302.39376831px;text-align:start;line-height:125%;writing-mode:lr-tb;text-anchor:start;fill:#ff3520;font-family:Clear Sans Medium;-inkscape-font-specification:'Clear Sans Medium,'" />
      <path
         d="m 1064,856.57358 c -2.7563,4.23275 -5.9063,8.04712 -9.4498,11.44313 -3.5438,3.39603 -7.6535,6.29987 -12.3291,8.71154 -4.6758,2.41166 -9.9913,4.25733 -15.9465,5.53699 -5.9554,1.27966 -12.6244,1.91949 -20.007,1.91949 -12.99357,0 -24.06755,-1.96871 -33.22198,-5.90613 -9.15455,-3.93741 -16.63563,-9.49901 -22.44329,-16.68481 -5.80772,-7.18576 -10.04044,-15.74964 -12.69818,-25.69166 -2.65777,-9.94193 -3.98665,-20.96669 -3.98663,-33.07431 -2e-5,-12.59966 1.40269,-23.99355 4.20811,-34.18172 2.80539,-10.18795 7.11194,-18.85027 12.91966,-25.98697 5.80765,-7.13642 13.19031,-12.64881 22.14798,-16.53716 8.95757,-3.88804 19.58859,-5.83214 31.89313,-5.8323 13.0918,1.6e-4 24.4611,2.26418 34.1079,6.79205 9.6465,4.52818 17.226,11.41866 22.7385,20.67145 l -24.8057,16.68481 c -3.4453,-5.31539 -7.6781,-9.37585 -12.6982,-12.18139 -5.0203,-2.80528 -11.3694,-4.20798 -19.0472,-4.20811 -13.28889,1.3e-4 -23.0586,4.40511 -29.30919,13.21496 -6.25071,8.81008 -9.37603,22.66486 -9.37598,41.56438 -5e-5,8.66238 0.689,16.34034 2.06714,23.0339 1.37805,6.69365 3.61745,12.30447 6.71823,16.83246 3.10065,4.52807 7.21033,7.9733 12.32904,10.33573 5.11857,2.36247 11.36921,3.5437 18.75196,3.54367 3.4451,3e-5 6.6689,-0.27067 9.6713,-0.81209 3.0022,-0.54137 5.8322,-1.4519 8.49,-2.73158 2.6577,-1.27964 5.1678,-2.95304 7.5304,-5.02021 2.3623,-2.06711 4.6755,-4.62643 6.9397,-7.67797 z"
         id="path3005"
         style="font-size:302.39376831px;text-align:start;line-height:125%;writing-mode:lr-tb;text-anchor:start;fill:#ff3520;font-family:Clear Sans Medium;-inkscape-font-specification:'Clear Sans Medium,'" />
    </g>
    <g
       id="text2996"
       style="font-size:72px;font-style:normal;font-variant:normal;font-weight:bold;font-stretch:normal;text-align:start;line-height:125%;letter-spacing:0px;word-spacing:0px;writing-mode:lr-tb;text-anchor:start;fill:#ff3520;fill-opacity:1;stroke:none;font-family:Clear Sans;-inkscape-font-specification:Clear Sans Bold">
      <path
         d="m 1126.7695,758.89136 c -5.1328,-10e-6 -9.8906,-1.27149 -14.2734,-3.81446 -4.3828,-2.54297 -7.8164,-5.99999 -10.3008,-10.37109 -2.4844,-4.37108 -3.7266,-9.09959 -3.7265,-14.18555 -1e-4,-5.08591 1.2421,-9.8027 3.7265,-14.15039 2.4844,-4.34761 5.9238,-7.7812 10.3184,-10.30078 4.3945,-2.51948 9.1464,-3.77925 14.2558,-3.7793 5.0859,5e-5 9.8086,1.2481 14.168,3.74415 4.3593,2.49613 7.7929,5.92386 10.3008,10.2832 2.5077,4.3594 3.7616,9.09378 3.7617,14.20312 -10e-5,5.08596 -1.2364,9.80861 -3.709,14.16797 -2.4727,4.35938 -5.9004,7.81641 -10.2832,10.3711 -4.3828,2.55468 -9.1289,3.83202 -14.2383,3.83203 z m 0,-5.48438 c 4.0547,0 7.8105,-1.00195 11.2676,-3.00586 3.457,-2.0039 6.2109,-4.78124 8.2617,-8.33203 2.0508,-3.55077 3.0761,-7.40037 3.0762,-11.54883 -10e-5,-4.05466 -1.0079,-7.84567 -3.0234,-11.37304 -2.0157,-3.52731 -4.7755,-6.30465 -8.2793,-8.33203 -3.504,-2.02731 -7.2716,-3.04098 -11.3028,-3.04102 -4.0781,4e-5 -7.8633,1.01957 -11.3554,3.05859 -3.4922,2.03911 -6.2403,4.82231 -8.2442,8.34961 -2.0039,3.52738 -3.0058,7.30667 -3.0058,11.33789 0,4.12502 1.0253,7.96877 3.0761,11.53125 2.0508,3.56251 4.8047,6.34571 8.2618,8.34961 3.457,2.00391 7.2128,3.00586 11.2675,3.00586 z m -11.0039,-8.50781 0,-29.88281 10.7227,0 c 4.1718,3e-5 7.2187,0.73831 9.1406,2.21484 1.9218,1.4766 2.8828,3.78519 2.8828,6.92578 0,4.33596 -1.6992,7.21877 -5.0976,8.64844 l 8.4023,12.09375 -8.7891,0 -7.4179,-10.79297 -2.6367,0 0,10.79297 z m 7.2071,-16.91016 3.375,0 c 1.2655,3e-5 2.2148,-0.082 2.8476,-0.24609 0.6328,-0.16404 1.0957,-0.46287 1.3887,-0.89648 0.2929,-0.43357 0.4394,-1.20115 0.4394,-2.30274 0,-1.10153 -0.252,-1.9277 -0.7558,-2.47851 -0.504,-0.55076 -1.7169,-0.82615 -3.6387,-0.82618 l -3.6562,0 z"
         id="path3008"
         style="line-height:125%;font-family:Clear Sans;-inkscape-font-specification:Clear Sans Bold" />
    </g>
  </g>
</svg>
